STARTFONT 2.1
FONT -FontForge-DejaVu Serif-Book-R-Normal--20-190-75-75-P-124-ISO10646-1
SIZE 19 75 75
FONTBOUNDINGBOX 22 23 -2 -5
COMMENT "Generated by fontforge, http://fontforge.sourceforge.net"
COMMENT "Copyright (c) 2003 by Bitstream, Inc. All Rights Reserved."
COMMENT "DejaVu changes are in public domain"
STARTPROPERTIES 40
FOUNDRY "FontForge"
FAMILY_NAME "DejaVu Serif"
WEIGHT_NAME "Book"
SLANT "R"
SETWIDTH_NAME "Normal"
ADD_STYLE_NAME ""
PIXEL_SIZE 20
POINT_SIZE 190
RESOLUTION_X 75
RESOLUTION_Y 75
SPACING "P"
AVERAGE_WIDTH 124
CHARSET_REGISTRY "ISO10646"
CHARSET_ENCODING "1"
FONTNAME_REGISTRY ""
CHARSET_COLLECTIONS "ISO10646-1"
FONT_NAME "DejaVuSerif"
FACE_NAME "DejaVu Serif"
COPYRIGHT "Copyright (c) 2003 by Bitstream, Inc. All Rights Reserved."
FONT_VERSION "2.37"
FONT_ASCENT 15
FONT_DESCENT 5
UNDERLINE_POSITION -2
UNDERLINE_THICKNESS 1
X_HEIGHT 9
CAP_HEIGHT 14
RAW_ASCENT 759
RAW_DESCENT 240
NORM_SPACE 6
RELATIVE_WEIGHT 40
RELATIVE_SETWIDTH 50
SUPERSCRIPT_X 0
SUPERSCRIPT_Y 9
SUPERSCRIPT_SIZE 13
SUBSCRIPT_X 0
SUBSCRIPT_Y 2
SUBSCRIPT_SIZE 13
FIGURE_WIDTH 13
AVG_LOWERCASE_WIDTH 112
AVG_UPPERCASE_WIDTH 149
ENDPROPERTIES
CHARS 102
STARTCHAR space
ENCODING 32
SWIDTH 317 0
DWIDTH 6 0
BBX 1 1 0 0
BITMAP
00
ENDCHAR
STARTCHAR exclam
ENCODING 33
SWIDTH 401 0
DWIDTH 8 0
BBX 3 15 3 0
BITMAP
E0
E0
E0
E0
40
40
40
40
40
40
00
00
E0
E0
E0
ENDCHAR
STARTCHAR quotedbl
ENCODING 34
SWIDTH 459 0
DWIDTH 9 0
BBX 6 5 2 10
BITMAP
CC
CC
CC
CC
CC
ENDCHAR
STARTCHAR numbersign
ENCODING 35
SWIDTH 837 0
DWIDTH 17 0
BBX 14 14 2 0
BITMAP
0630
0620
0460
0460
0C60
7FFC
08C0
18C0
FFF8
1180
1180
3100
3300
3300
ENDCHAR
STARTCHAR dollar
ENCODING 36
SWIDTH 636 0
DWIDTH 13 0
BBX 9 19 2 -3
BITMAP
0800
0800
0800
3E00
6B00
C900
C900
E800
7800
3E00
0F00
0980
8980
8980
CB00
7E00
0800
0800
0800
ENDCHAR
STARTCHAR percent
ENCODING 37
SWIDTH 950 0
DWIDTH 19 0
BBX 17 15 1 0
BITMAP
380800
6C0800
C61000
C63000
C62000
C64000
6C4000
388E00
011B00
013180
023180
063180
043180
081B00
080E00
ENDCHAR
STARTCHAR ampersand
ENCODING 38
SWIDTH 890 0
DWIDTH 18 0
BBX 15 15 1 0
BITMAP
0F80
18C0
3040
3040
3800
1C00
2E1E
6708
C308
C188
C0D0
C0F0
6070
70F8
1F9E
ENDCHAR
STARTCHAR quotesingle
ENCODING 39
SWIDTH 274 0
DWIDTH 6 0
BBX 2 5 2 10
BITMAP
C0
C0
C0
C0
C0
ENDCHAR
STARTCHAR parenleft
ENCODING 40
SWIDTH 390 0
DWIDTH 8 0
BBX 5 18 2 -3
BITMAP
08
10
20
60
40
C0
C0
C0
C0
C0
C0
C0
C0
40
60
20
10
08
ENDCHAR
STARTCHAR parenright
ENCODING 41
SWIDTH 390 0
DWIDTH 8 0
BBX 5 18 1 -3
BITMAP
80
40
20
30
10
18
18
18
18
18
18
18
18
10
30
20
40
80
ENDCHAR
STARTCHAR asterisk
ENCODING 42
SWIDTH 500 0
DWIDTH 10 0
BBX 9 9 0 6
BITMAP
0800
0800
C980
6B00
1C00
7F00
C980
0800
0800
ENDCHAR
STARTCHAR plus
ENCODING 43
SWIDTH 837 0
DWIDTH 17 0
BBX 12 12 3 0
BITMAP
0600
0600
0600
0600
0600
FFF0
FFF0
0600
0600
0600
0600
0600
ENDCHAR
STARTCHAR comma
ENCODING 44
SWIDTH 317 0
DWIDTH 6 0
BBX 4 5 1 -3
BITMAP
30
30
20
60
C0
ENDCHAR
STARTCHAR hyphen
ENCODING 45
SWIDTH 337 0
DWIDTH 7 0
BBX 5 2 1 4
BITMAP
F8
F8
ENDCHAR
STARTCHAR period
ENCODING 46
SWIDTH 317 0
DWIDTH 7 0
BBX 3 3 2 0
BITMAP
E0
E0
E0
ENDCHAR
STARTCHAR slash
ENCODING 47
SWIDTH 336 0
DWIDTH 7 0
BBX 7 16 0 -1
BITMAP
06
04
04
0C
08
08
18
10
10
30
20
20
60
40
40
C0
ENDCHAR
STARTCHAR zero
ENCODING 48
SWIDTH 636 0
DWIDTH 13 0
BBX 11 15 1 0
BITMAP
1F00
3180
60C0
60C0
C060
C060
C060
C060
C060
C060
C060
60C0
60C0
3180
1F00
ENDCHAR
STARTCHAR one
ENCODING 49
SWIDTH 636 0
DWIDTH 13 0
BBX 8 15 2 0
BITMAP
18
78
98
18
18
18
18
18
18
18
18
18
18
18
FF
ENDCHAR
STARTCHAR two
ENCODING 50
SWIDTH 636 0
DWIDTH 13 0
BBX 9 15 1 0
BITMAP
7E00
C300
8180
8180
0180
0180
0300
0200
0400
0800
1000
2080
4080
FF80
FF80
ENDCHAR
STARTCHAR three
ENCODING 51
SWIDTH 636 0
DWIDTH 13 0
BBX 10 15 2 0
BITMAP
7E00
C300
8180
8180
0180
0300
1C00
0380
0180
00C0
00C0
80C0
80C0
C180
7E00
ENDCHAR
STARTCHAR four
ENCODING 52
SWIDTH 636 0
DWIDTH 13 0
BBX 11 15 1 0
BITMAP
0300
0700
0700
0B00
1B00
1300
2300
2300
4300
8300
FFE0
0300
0300
0300
0FC0
ENDCHAR
STARTCHAR five
ENCODING 53
SWIDTH 636 0
DWIDTH 13 0
BBX 9 15 2 0
BITMAP
7F00
7F00
4000
4000
4000
7E00
4300
0180
0180
0180
0180
8180
8180
C300
7E00
ENDCHAR
STARTCHAR six
ENCODING 54
SWIDTH 636 0
DWIDTH 13 0
BBX 11 15 1 0
BITMAP
0F80
30C0
6040
4000
C000
DF00
E1C0
E0C0
C060
C060
C060
4060
60C0
31C0
1F00
ENDCHAR
STARTCHAR seven
ENCODING 55
SWIDTH 636 0
DWIDTH 13 0
BBX 10 15 2 0
BITMAP
FFC0
FFC0
8080
8080
0100
0100
0100
0200
0200
0400
0400
0800
0800
0800
1000
ENDCHAR
STARTCHAR eight
ENCODING 56
SWIDTH 636 0
DWIDTH 13 0
BBX 11 15 1 0
BITMAP
3F80
60C0
C060
C060
C060
60C0
1F00
60C0
C060
C060
C060
C060
C060
60C0
1F00
ENDCHAR
STARTCHAR nine
ENCODING 57
SWIDTH 636 0
DWIDTH 13 0
BBX 11 15 1 0
BITMAP
1F00
7180
60C0
C040
C060
C060
C060
60E0
70E0
1F60
0060
0040
40C0
6180
3E00
ENDCHAR
STARTCHAR colon
ENCODING 58
SWIDTH 336 0
DWIDTH 7 0
BBX 3 9 2 0
BITMAP
E0
E0
E0
00
00
00
E0
E0
E0
ENDCHAR
STARTCHAR semicolon
ENCODING 59
SWIDTH 336 0
DWIDTH 7 0
BBX 3 12 2 -3
BITMAP
E0
E0
E0
00
00
00
00
60
60
40
C0
80
ENDCHAR
STARTCHAR less
ENCODING 60
SWIDTH 837 0
DWIDTH 17 0
BBX 13 11 2 1
BITMAP
0008
0078
03E0
1F00
F800
E000
F800
1F00
03E0
0078
0008
ENDCHAR
STARTCHAR equal
ENCODING 61
SWIDTH 837 0
DWIDTH 17 0
BBX 13 6 2 3
BITMAP
FFF8
FFF8
0000
0000
FFF8
FFF8
ENDCHAR
STARTCHAR greater
ENCODING 62
SWIDTH 837 0
DWIDTH 17 0
BBX 13 11 2 1
BITMAP
8000
F000
3E00
07C0
00F8
0038
00F8
07C0
3E00
F000
8000
ENDCHAR
STARTCHAR question
ENCODING 63
SWIDTH 536 0
DWIDTH 11 0
BBX 8 15 1 0
BITMAP
7C
C6
83
83
03
07
0E
1C
10
10
00
00
38
38
38
ENDCHAR
STARTCHAR at
ENCODING 64
SWIDTH 1000 0
DWIDTH 20 0
BBX 17 18 1 -4
BITMAP
03F000
0E0C00
180600
300300
63B100
637080
C63080
C63080
C63080
C63080
C63180
C63100
637600
63B800
300000
380000
0C1800
03E000
ENDCHAR
STARTCHAR A
ENCODING 65
SWIDTH 722 0
DWIDTH 14 0
BBX 15 15 0 0
BITMAP
0300
0380
0380
05C0
04C0
08C0
0860
0860
1060
1030
1FF0
2038
2018
4018
F03E
ENDCHAR
STARTCHAR B
ENCODING 66
SWIDTH 734 0
DWIDTH 15 0
BBX 13 15 1 0
BITMAP
FFC0
3060
3030
3030
3030
3060
3FC0
3030
3018
3018
3018
3018
3018
3030
FFC0
ENDCHAR
STARTCHAR C
ENCODING 67
SWIDTH 765 0
DWIDTH 15 0
BBX 13 15 1 0
BITMAP
0FC0
3070
2030
6010
C000
C000
C000
C000
C000
C000
C000
6018
2030
1860
0FC0
ENDCHAR
STARTCHAR D
ENCODING 68
SWIDTH 801 0
DWIDTH 16 0
BBX 14 15 1 0
BITMAP
FF80
3060
3030
3018
300C
300C
300C
300C
300C
300C
300C
3018
3030
3060
FF80
ENDCHAR
STARTCHAR E
ENCODING 69
SWIDTH 729 0
DWIDTH 15 0
BBX 12 15 1 0
BITMAP
FFF0
3010
3010
3000
3040
3040
3FC0
3040
3040
3000
3000
3000
3010
3010
FFF0
ENDCHAR
STARTCHAR F
ENCODING 70
SWIDTH 693 0
DWIDTH 14 0
BBX 12 15 1 0
BITMAP
FFF0
3010
3010
3000
3040
3040
3FC0
3040
3040
3000
3000
3000
3000
3000
FC00
ENDCHAR
STARTCHAR G
ENCODING 71
SWIDTH 798 0
DWIDTH 16 0
BBX 13 15 1 0
BITMAP
0FC0
3070
6030
6010
C000
C000
C000
C000
C0F8
C018
C018
6018
2018
1838
0FE0
ENDCHAR
STARTCHAR H
ENCODING 72
SWIDTH 872 0
DWIDTH 18 0
BBX 16 15 1 0
BITMAP
FC3F
300C
300C
300C
300C
300C
3FFC
300C
300C
300C
300C
300C
300C
300C
FC3F
ENDCHAR
STARTCHAR I
ENCODING 73
SWIDTH 395 0
DWIDTH 8 0
BBX 6 15 1 0
BITMAP
FC
30
30
30
30
30
30
30
30
30
30
30
30
30
FC
ENDCHAR
STARTCHAR J
ENCODING 74
SWIDTH 400 0
DWIDTH 8 0
BBX 9 19 -2 -4
BITMAP
1F80
0600
0600
0600
0600
0600
0600
0600
0600
0600
0600
0600
0600
0600
0600
0600
8600
8C00
7800
ENDCHAR
STARTCHAR K
ENCODING 75
SWIDTH 747 0
DWIDTH 15 0
BBX 14 15 1 0
BITMAP
FCF8
3020
3040
3080
3300
3600
3C00
3C00
3600
3300
3380
31C0
30E0
3070
FC3C
ENDCHAR
STARTCHAR L
ENCODING 76
SWIDTH 664 0
DWIDTH 13 0
BBX 12 15 1 0
BITMAP
FC00
3000
3000
3000
3000
3000
3000
3000
3000
3000
3000
3000
3010
3010
FFF0
ENDCHAR
STARTCHAR M
ENCODING 77
SWIDTH 1023 0
DWIDTH 21 0
BBX 19 15 1 0
BITMAP
F001E0
380380
380380
2C0580
2C0580
260980
260980
231180
231180
21A180
21A180
20C180
20C180
200180
F807E0
ENDCHAR
STARTCHAR N
ENCODING 78
SWIDTH 875 0
DWIDTH 18 0
BBX 16 15 1 0
BITMAP
F01F
3804
3C04
2E04
2604
2304
2384
21C4
20C4
2064
2074
203C
201C
200C
F80C
ENDCHAR
STARTCHAR O
ENCODING 79
SWIDTH 819 0
DWIDTH 16 0
BBX 14 15 1 0
BITMAP
0FC0
1860
2010
6018
C00C
C00C
C00C
C00C
C00C
C00C
C00C
6018
2010
1860
0FC0
ENDCHAR
STARTCHAR P
ENCODING 80
SWIDTH 672 0
DWIDTH 13 0
BBX 12 15 1 0
BITMAP
FFC0
3060
3030
3030
3030
3030
3060
3FC0
3000
3000
3000
3000
3000
3000
FC00
ENDCHAR
STARTCHAR Q
ENCODING 81
SWIDTH 819 0
DWIDTH 16 0
BBX 14 18 1 -3
BITMAP
0FC0
1860
2010
6018
C00C
C00C
C00C
C00C
C00C
C00C
C00C
6018
2010
1860
0FC0
0080
00F0
0030
ENDCHAR
STARTCHAR R
ENCODING 82
SWIDTH 752 0
DWIDTH 15 0
BBX 15 15 1 0
BITMAP
FFC0
3060
3030
3030
3030
3030
3060
3F80
30C0
3060
3060
3030
3030
3038
FC1E
ENDCHAR
STARTCHAR S
ENCODING 83
SWIDTH 685 0
DWIDTH 13 0
BBX 11 15 1 0
BITMAP
3F00
60C0
C040
C040
C000
E000
7800
3F00
07C0
00E0
0060
8060
8060
C0C0
3F80
ENDCHAR
STARTCHAR T
ENCODING 84
SWIDTH 666 0
DWIDTH 14 0
BBX 12 15 1 0
BITMAP
FFF0
8610
8610
0600
0600
0600
0600
0600
0600
0600
0600
0600
0600
0600
1F80
ENDCHAR
STARTCHAR U
ENCODING 85
SWIDTH 842 0
DWIDTH 17 0
BBX 15 15 1 0
BITMAP
FC3E
3008
3008
3008
3008
3008
3008
3008
3008
3008
3008
3008
1810
1C30
07E0
ENDCHAR
STARTCHAR V
ENCODING 86
SWIDTH 722 0
DWIDTH 14 0
BBX 15 15 0 0
BITMAP
F81E
7008
3008
3008
1810
1810
1820
0C20
0C20
0E40
0640
0640
0380
0380
0300
ENDCHAR
STARTCHAR W
ENCODING 87
SWIDTH 1027 0
DWIDTH 21 0
BBX 20 15 0 0
BITMAP
F821F0
307040
307040
307040
30F040
189880
189880
189880
1D1C80
0D0D00
0D0D00
0D0D00
0E0700
060600
060600
ENDCHAR
STARTCHAR X
ENCODING 88
SWIDTH 711 0
DWIDTH 14 0
BBX 14 15 0 0
BITMAP
FCF8
3020
1840
1840
0C80
0F80
0700
0300
0780
0580
08C0
10E0
1060
2030
F0FC
ENDCHAR
STARTCHAR Y
ENCODING 89
SWIDTH 660 0
DWIDTH 13 0
BBX 14 15 0 0
BITMAP
FC3C
3010
3830
1820
0C40
0C40
0680
0780
0300
0300
0300
0300
0300
0300
0FC0
ENDCHAR
STARTCHAR Z
ENCODING 90
SWIDTH 694 0
DWIDTH 14 0
BBX 12 15 1 0
BITMAP
FFF0
8060
80E0
00C0
0180
0380
0700
0600
0E00
1C00
1800
3000
7010
6010
FFF0
ENDCHAR
STARTCHAR bracketleft
ENCODING 91
SWIDTH 390 0
DWIDTH 8 0
BBX 5 18 2 -3
BITMAP
F8
C0
C0
C0
C0
C0
C0
C0
C0
C0
C0
C0
C0
C0
C0
C0
C0
F8
ENDCHAR
STARTCHAR backslash
ENCODING 92
SWIDTH 336 0
DWIDTH 7 0
BBX 7 16 0 -1
BITMAP
C0
40
40
60
20
20
30
10
10
18
08
08
0C
04
04
06
ENDCHAR
STARTCHAR bracketright
ENCODING 93
SWIDTH 390 0
DWIDTH 8 0
BBX 5 18 1 -3
BITMAP
F8
18
18
18
18
18
18
18
18
18
18
18
18
18
18
18
18
F8
ENDCHAR
STARTCHAR asciicircum
ENCODING 94
SWIDTH 837 0
DWIDTH 17 0
BBX 11 5 3 10
BITMAP
0E00
1F00
3180
60C0
8020
ENDCHAR
STARTCHAR underscore
ENCODING 95
SWIDTH 500 0
DWIDTH 10 0
BBX 10 1 0 -5
BITMAP
FFC0
ENDCHAR
STARTCHAR grave
ENCODING 96
SWIDTH 500 0
DWIDTH 10 0
BBX 4 4 2 12
BITMAP
C0
60
20
10
ENDCHAR
STARTCHAR a
ENCODING 97
SWIDTH 596 0
DWIDTH 12 0
BBX 10 10 1 0
BITMAP
3E00
6300
4180
0180
3F80
E180
C180
C180
E380
7DC0
ENDCHAR
STARTCHAR b
ENCODING 98
SWIDTH 640 0
DWIDTH 13 0
BBX 10 15 1 0
BITMAP
E000
6000
6000
6000
6000
6F00
7180
60C0
60C0
60C0
60C0
60C0
60C0
7180
EF00
ENDCHAR
STARTCHAR c
ENCODING 99
SWIDTH 560 0
DWIDTH 11 0
BBX 9 10 1 0
BITMAP
1F00
6180
4080
C000
C000
C000
C000
4080
6100
1E00
ENDCHAR
STARTCHAR d
ENCODING 100
SWIDTH 640 0
DWIDTH 12 0
BBX 10 15 1 0
BITMAP
0380
0180
0180
0180
0180
3D80
6380
C180
C180
C180
C180
C180
C180
6380
3DC0
ENDCHAR
STARTCHAR e
ENCODING 101
SWIDTH 591 0
DWIDTH 12 0
BBX 10 10 1 0
BITMAP
1F00
6180
40C0
C0C0
FFC0
C000
C000
6040
7080
1F00
ENDCHAR
STARTCHAR f
ENCODING 102
SWIDTH 370 0
DWIDTH 7 0
BBX 7 15 1 0
BITMAP
3E
62
60
60
60
FC
60
60
60
60
60
60
60
60
F8
ENDCHAR
STARTCHAR g
ENCODING 103
SWIDTH 640 0
DWIDTH 12 0
BBX 10 14 1 -4
BITMAP
3DC0
6380
C180
C180
C180
C180
C180
C180
6380
3D80
0180
4180
6300
3E00
ENDCHAR
STARTCHAR h
ENCODING 104
SWIDTH 644 0
DWIDTH 12 0
BBX 10 15 1 0
BITMAP
E000
6000
6000
6000
6000
6F00
7380
6180
6180
6180
6180
6180
6180
6180
F3C0
ENDCHAR
STARTCHAR i
ENCODING 105
SWIDTH 319 0
DWIDTH 6 0
BBX 4 14 1 0
BITMAP
60
60
00
00
E0
60
60
60
60
60
60
60
60
F0
ENDCHAR
STARTCHAR j
ENCODING 106
SWIDTH 310 0
DWIDTH 6 0
BBX 6 18 -2 -4
BITMAP
0C
0C
00
00
1C
0C
0C
0C
0C
0C
0C
0C
0C
0C
0C
8C
88
70
ENDCHAR
STARTCHAR k
ENCODING 107
SWIDTH 605 0
DWIDTH 12 0
BBX 11 15 1 0
BITMAP
E000
6000
6000
6000
6000
63C0
6100
6200
6400
6C00
7E00
6600
6300
6380
F7E0
ENDCHAR
STARTCHAR l
ENCODING 108
SWIDTH 319 0
DWIDTH 6 0
BBX 4 15 1 0
BITMAP
E0
60
60
60
60
60
60
60
60
60
60
60
60
60
F0
ENDCHAR
STARTCHAR m
ENCODING 109
SWIDTH 948 0
DWIDTH 18 0
BBX 16 10 1 0
BITMAP
EF3C
73CE
6186
6186
6186
6186
6186
6186
6186
F3CF
ENDCHAR
STARTCHAR n
ENCODING 110
SWIDTH 644 0
DWIDTH 12 0
BBX 10 10 1 0
BITMAP
EF00
7380
6180
6180
6180
6180
6180
6180
6180
F3C0
ENDCHAR
STARTCHAR o
ENCODING 111
SWIDTH 602 0
DWIDTH 12 0
BBX 10 10 1 0
BITMAP
1E00
6180
4080
C0C0
C0C0
C0C0
C0C0
4080
6180
1E00
ENDCHAR
STARTCHAR p
ENCODING 112
SWIDTH 640 0
DWIDTH 12 0
BBX 10 14 1 -4
BITMAP
EF00
7180
60C0
60C0
60C0
60C0
60C0
60C0
7180
6F00
6000
6000
6000
F000
ENDCHAR
STARTCHAR q
ENCODING 113
SWIDTH 640 0
DWIDTH 12 0
BBX 10 14 1 -4
BITMAP
3DC0
6380
C180
C180
C180
C180
C180
C180
6380
3D80
0180
0180
0180
03C0
ENDCHAR
STARTCHAR r
ENCODING 114
SWIDTH 478 0
DWIDTH 10 0
BBX 8 10 1 0
BITMAP
EF
71
61
60
60
60
60
60
60
F8
ENDCHAR
STARTCHAR s
ENCODING 115
SWIDTH 513 0
DWIDTH 10 0
BBX 8 10 1 0
BITMAP
7E
C3
C1
F0
7C
1F
03
83
C3
7C
ENDCHAR
STARTCHAR t
ENCODING 116
SWIDTH 401 0
DWIDTH 8 0
BBX 7 13 1 0
BITMAP
60
60
60
FE
60
60
60
60
60
60
62
62
3C
ENDCHAR
STARTCHAR u
ENCODING 117
SWIDTH 644 0
DWIDTH 12 0
BBX 10 10 1 0
BITMAP
E380
6180
6180
6180
6180
6180
6180
6180
7380
3DC0
ENDCHAR
STARTCHAR v
ENCODING 118
SWIDTH 564 0
DWIDTH 11 0
BBX 11 10 0 0
BITMAP
F9E0
6040
3080
3080
1900
1900
1F00
0E00
0E00
0400
ENDCHAR
STARTCHAR w
ENCODING 119
SWIDTH 855 0
DWIDTH 17 0
BBX 17 10 0 0
BITMAP
F8C780
60C100
31C200
316200
396200
1A6400
1A3400
1E3C00
0C3800
0C1800
ENDCHAR
STARTCHAR x
ENCODING 120
SWIDTH 563 0
DWIDTH 11 0
BBX 11 10 0 0
BITMAP
F9E0
3080
3900
1E00
0E00
0E00
0F00
1380
2180
F3E0
ENDCHAR
STARTCHAR y
ENCODING 121
SWIDTH 564 0
DWIDTH 11 0
BBX 11 14 0 -4
BITMAP
F9E0
3040
3080
1880
1980
1D00
0D00
0E00
0600
0600
0400
0400
4800
7800
ENDCHAR
STARTCHAR z
ENCODING 122
SWIDTH 526 0
DWIDTH 11 0
BBX 9 10 1 0
BITMAP
FF80
8300
8700
0E00
0C00
1800
3800
7080
6080
FF80
ENDCHAR
STARTCHAR braceleft
ENCODING 123
SWIDTH 636 0
DWIDTH 13 0
BBX 8 18 3 -3
BITMAP
0F
18
18
18
18
18
18
38
E0
30
18
18
18
18
18
18
18
0F
ENDCHAR
STARTCHAR bar
ENCODING 124
SWIDTH 336 0
DWIDTH 7 0
BBX 2 20 3 -5
BITMAP
C0
C0
C0
C0
C0
C0
C0
C0
C0
C0
C0
C0
C0
C0
C0
C0
C0
C0
C0
C0
ENDCHAR
STARTCHAR braceright
ENCODING 125
SWIDTH 636 0
DWIDTH 13 0
BBX 8 18 2 -3
BITMAP
F0
18
18
18
18
18
18
1C
07
0C
18
18
18
18
18
18
18
F0
ENDCHAR
STARTCHAR asciitilde
ENCODING 126
SWIDTH 837 0
DWIDTH 17 0
BBX 13 3 2 5
BITMAP
3E08
FFF0
83E0
ENDCHAR
STARTCHAR Adieresis
ENCODING 196
SWIDTH 722 0
DWIDTH 14 0
BBX 15 18 0 0
BITMAP
0CC0
0CC0
0000
0300
0300
0380
0580
05C0
0CC0
08C0
0860
1060
1060
3FF0
2030
2038
6018
F07E
ENDCHAR
STARTCHAR Odieresis
ENCODING 214
SWIDTH 819 0
DWIDTH 16 0
BBX 14 18 1 0
BITMAP
0CC0
0CC0
0000
07C0
1870
3018
6018
600C
E00C
C00C
C00C
C00C
C00C
600C
6018
3018
3830
0FE0
ENDCHAR
STARTCHAR Udieresis
ENCODING 220
SWIDTH 842 0
DWIDTH 17 0
BBX 15 18 1 0
BITMAP
0660
0660
0000
FC3E
3008
3008
3008
3008
3008
3008
3008
3008
3008
3008
3008
3018
1830
0FE0
ENDCHAR
STARTCHAR germandbls
ENCODING 223
SWIDTH 667 0
DWIDTH 13 0
BBX 11 15 1 0
BITMAP
1F00
3180
60C0
61C0
6700
6600
6600
6700
6180
60C0
6060
6060
6860
6CC0
E780
ENDCHAR
STARTCHAR adieresis
ENCODING 228
SWIDTH 596 0
DWIDTH 12 0
BBX 10 15 1 0
BITMAP
3700
3200
0000
0000
1C00
6700
4100
0180
0F80
7F80
C180
C180
C180
E380
7DC0
ENDCHAR
STARTCHAR odieresis
ENCODING 246
SWIDTH 602 0
DWIDTH 12 0
BBX 10 15 1 0
BITMAP
3300
3300
0000
0000
0C00
3300
6180
C0C0
C0C0
C0C0
C0C0
C0C0
40C0
6180
3F00
ENDCHAR
STARTCHAR udieresis
ENCODING 252
SWIDTH 644 0
DWIDTH 13 0
BBX 11 15 1 0
BITMAP
3300
3300
0000
0000
0000
E380
6080
6080
6080
6080
6080
6080
6180
3280
3EE0
ENDCHAR
ENDFONT
